M48
; DRILL file {KiCad (5.1.5)-3} date 10/06/2020 15:28:01
; FORMAT={-:-/ absolute / metric / decimal}
; #@! TF.CreationDate,2020-06-10T15:28:01+02:00
; #@! TF.GenerationSoftware,Kicad,Pcbnew,(5.1.5)-3
; #@! TF.FileFunction,Plated,1,2,PTH
FMAT,2
METRIC
T1C0.400
T2C0.800
T3C1.000
%
G90
G05
T1
X112.392Y-81.788
X127.508Y-81.788
X128.956Y-90.531
X129.54Y-84.582
X136.131Y-96.38
X144.44Y-82.032
X145.664Y-90.538
X149.238Y-86.865
X171.45Y-80.645
T2
X179.324Y-75.017
X179.324Y-78.867
X179.324Y-92.187
X179.324Y-95.997
T3
X124.645Y-101.075
X124.645Y-103.615
X134.805Y-103.615
X137.345Y-103.615
X142.425Y-103.615
X144.965Y-101.075
X150.045Y-101.075
X150.045Y-103.615
X152.585Y-101.065
X152.585Y-103.605
X105.329Y-74.88
X105.329Y-77.42
X105.329Y-79.96
X115.54Y-83.622
X115.54Y-86.162
X115.54Y-88.702
X115.54Y-91.242
X115.54Y-93.782
X115.54Y-96.322
X115.54Y-98.862
X115.54Y-106.482
T0
M30
