M48
; DRILL file {KiCad (5.1.5)-3} date 10/06/2020 15:28:01
; FORMAT={-:-/ absolute / metric / decimal}
; #@! TF.CreationDate,2020-06-10T15:28:01+02:00
; #@! TF.GenerationSoftware,Kicad,Pcbnew,(5.1.5)-3
; #@! TF.FileFunction,NonPlated,1,2,NPTH
FMAT,2
METRIC
T1C1.000
T2C4.000
%
G90
G05
T1
X127.185Y-101.065
X127.185Y-103.615
X129.725Y-101.075
X129.725Y-103.615
X132.265Y-101.075
X132.265Y-103.615
X134.805Y-101.065
X137.345Y-101.075
X139.885Y-101.075
X139.885Y-103.615
X142.425Y-101.075
X144.965Y-103.605
X147.505Y-101.075
X147.505Y-103.605
X105.329Y-69.8
X105.329Y-72.34
X115.54Y-101.402
X115.54Y-103.942
T2
X177.546Y-67.691
X177.292Y-105.156
X93.88Y-104.965
T0
M30
